<svg width="193" height="280" viewBox="0 0 193 280" fill="none" xmlns="http://www.w3.org/2000/svg">
<path d="M28.768 221.056C25.865 221.056 23.7274 220.66 22.3551 219.869C20.9827 219.13 20.2966 217.995 20.2966 216.464V143.151C20.2966 138.928 20.1646 135.629 19.9007 133.254C19.6896 130.826 19.3993 128.504 19.0298 126.287C18.7659 124.862 18.6339 123.859 18.6339 123.278C18.6339 122.223 19.6104 121.378 21.5633 120.745C23.5163 120.059 25.7331 119.557 28.2138 119.24C30.7473 118.924 32.7794 118.765 34.3101 118.765C35.9991 118.765 37.1603 119.399 37.7937 120.665C38.4799 121.879 39.0869 123.648 39.6147 125.97L40.0105 127.791C41.6468 124.677 44.1275 122.143 47.4528 120.19C50.8308 118.238 54.6311 117.261 58.8536 117.261C63.9734 117.261 68.5127 118.739 72.4713 121.695C76.4299 124.651 79.5177 129.005 81.7345 134.758C84.0041 140.459 85.1389 147.294 85.1389 155.264C85.1389 162.917 83.9777 169.594 81.6553 175.295C79.3329 180.995 75.9549 185.402 71.5212 188.516C67.0876 191.631 61.7566 193.188 55.5284 193.188C50.1974 193.188 45.3679 191.71 41.0398 188.754V216.464C41.0398 217.995 40.3536 219.13 38.9813 219.869C37.6618 220.66 35.5505 221.056 32.6475 221.056H28.768ZM50.9364 176.641C59.6453 176.641 63.9998 169.515 63.9998 155.264C63.9998 141.277 60.2259 134.283 52.6782 134.283C48.2445 134.283 44.365 137.054 41.0398 142.596V173.949C44.3123 175.743 47.6111 176.641 50.9364 176.641Z" fill="black"/>
<path d="M185.525 154.22C185.741 157.679 185.849 160.976 185.849 164.111C185.849 167.138 185.741 170.381 185.525 173.84C185.525 175.137 185.525 176.596 185.525 178.218C185.525 179.839 185.417 181.406 185.2 182.92C184.984 184.433 184.606 185.838 184.065 187.136C183.525 188.433 182.714 189.46 181.633 190.216C180.336 191.081 178.877 191.676 177.255 192C175.634 192.216 174.12 192.108 172.715 191.676C171.31 191.243 170.067 190.433 168.986 189.244C168.013 188.054 167.473 186.379 167.364 184.217C167.04 179.245 166.878 174.272 166.878 169.3C166.878 166.813 166.824 164.435 166.716 162.165C166.716 159.895 166.77 156.706 166.878 152.599C166.878 150.545 166.716 148.221 166.392 145.626C166.067 142.924 165.257 141.032 163.959 139.951C162.986 139.087 161.906 138.6 160.716 138.492C159.527 138.276 158.338 138.384 157.149 138.816C156.068 139.249 155.095 140.059 154.231 141.248C153.366 142.329 152.771 143.735 152.447 145.464C152.447 146.87 152.393 148.329 152.285 149.842C152.285 151.247 152.339 152.599 152.447 153.896C152.555 157.355 152.609 160.652 152.609 163.787C152.609 166.813 152.555 170.056 152.447 173.515C152.339 174.921 152.285 176.434 152.285 178.055C152.393 179.677 152.393 181.298 152.285 182.92C152.177 184.433 151.852 185.838 151.312 187.136C150.88 188.433 150.069 189.46 148.88 190.216C147.583 191.081 146.177 191.622 144.664 191.838C143.259 191.946 141.908 191.73 140.61 191.189C139.421 190.541 138.34 189.568 137.367 188.271C136.503 186.973 136.016 185.244 135.908 183.082C135.692 180.596 135.53 178.326 135.422 176.272C135.422 174.11 135.422 171.84 135.422 169.462C135.422 166.976 135.476 164.435 135.584 161.841C135.692 159.139 135.638 156.544 135.422 154.058C135.422 153.301 135.368 152.437 135.26 151.464C135.26 150.383 135.206 149.302 135.097 148.221C135.097 147.14 134.989 146.113 134.773 145.14C134.665 144.059 134.449 143.194 134.125 142.546C133.26 141.032 131.692 140.059 129.422 139.627C127.26 139.195 125.423 139.357 123.909 140.113C122.396 140.87 121.261 141.843 120.504 143.032C119.748 144.221 119.207 145.518 118.883 146.924C118.559 148.329 118.396 149.842 118.396 151.464C118.396 152.977 118.396 154.436 118.396 155.842C118.396 162.868 118.396 168.975 118.396 174.164C118.505 179.245 117.964 183.352 116.775 186.487C116.235 188.109 115.1 189.352 113.37 190.216C111.749 191.081 109.965 191.514 108.019 191.514C106.182 191.514 104.452 191.081 102.831 190.216C101.209 189.352 100.128 188 99.5876 186.163C99.2633 184.974 98.939 183.298 98.6147 181.136C98.3985 178.866 98.2364 176.38 98.1283 173.678C98.0202 170.975 97.9661 168.273 97.9661 165.57C97.9661 162.76 97.9661 160.219 97.9661 157.949V134.601C97.858 132.114 97.804 129.412 97.804 126.493C97.804 123.575 98.2364 120.926 99.1012 118.548C99.8578 116.494 101.047 115.197 102.668 114.657C104.29 114.008 105.965 113.738 107.695 113.846C109.641 113.846 111.154 114.386 112.235 115.467C113.424 116.44 114.289 117.683 114.829 119.197C115.37 120.602 115.694 122.223 115.802 124.061C115.91 125.791 116.018 127.466 116.126 129.088C117.316 126.385 118.721 124.169 120.342 122.44C122.072 120.602 124.504 119.413 127.639 118.872C135.638 117.359 142.016 119.413 146.772 125.034C148.934 122.872 151.69 121.088 155.041 119.683C157.636 118.71 160.284 118.278 162.986 118.386C165.689 118.386 168.229 118.872 170.607 119.845C173.094 120.818 175.31 122.223 177.255 124.061C179.309 125.899 180.931 128.115 182.12 130.709C183.741 134.168 184.66 138.006 184.876 142.221C185.092 146.437 185.309 150.437 185.525 154.22Z" fill="#C90033"/>
<path d="M28 35C28 38.6739 28.0555 41 33.7778 41M33.7778 41C36.7905 45.5191 36.7687 54.9584 41.5 58C47.1299 61.6192 47.2669 63.9708 50.5 69C54.3028 74.9154 64.1446 79.6644 70.1111 83.5C72.197 84.8409 74.4652 87.5823 77 87.9444C81.5473 88.594 85.3892 90.7904 90 91C95.7778 91.2626 98.176 94.5356 104 94.5356C110.481 94.5356 118.019 95.5 124.5 95.5C126.759 95.5 151.722 101.758 158 94.5356M33.7778 41C32.6326 39.022 30.3412 37.7904 29.2222 36C27.1402 32.6687 24.0364 28.649 22.5 25C21.1209 21.7246 19.4722 20.3545 17 18C15.271 16.3533 14.1439 14.255 12.5 12.6111C9.94821 10.0593 6.97628 3.92179 3.55555 2.94444C-1.33155 1.54812 5.66585 2.99999 7.5 2.99999C9.11582 2.99999 10.4006 4.61989 12.1111 4.99999C14.8435 5.60719 17.2223 5.99999 20 5.99999C23.9259 5.99999 27.8518 5.99999 31.7778 5.99999C40.9096 5.99999 49.9708 6.99999 59.2222 6.99999C64.1481 6.99999 69.0741 6.99999 74 6.99999C77.0853 6.99999 80.1116 8.45034 83.2222 8.77777C86.1075 9.08148 90.9688 7.90943 93.5555 9.55555C99.8594 13.5671 107.523 15.9487 114.389 19C118.076 20.6387 121.958 21.9956 124.5 25C139.056 30.5 144.747 48.1015 153.5 61C157.988 67.6136 157.549 86.4203 158 94.5356M33.7778 41C35.2752 43.5865 35.1142 46.9348 36.7778 49.2222C39.9894 53.6382 44.5873 84.9881 50.5 87.9444M158 94.5356C154.722 104.258 133.312 73.084 152 96.4444C154.39 99.4323 159.81 94.3279 162.833 96.4444C165.713 98.4602 177.419 104.71 179 107.556M158 94.5356C164 95.027 166.483 100.987 171.1 101.5C173.26 101.74 177.176 106.137 179 107.556M179 107.556C180.672 110.565 182.517 110.291 179 107.556Z" stroke="#1D1919" stroke-width="3" stroke-linecap="round"/>
<path d="M15.4701 10.9333C17.1717 10.9333 18.6335 12.0978 19.9721 13.0245C21.4985 14.0813 24.841 13.5513 26 15C26.8709 16.0887 30.3701 15 30.3701 17.4103C31.7145 17.8904 31.5742 17.3684 33 17.4103C34.7737 17.4625 38.6626 18.7192 40.318 19.4434C41.4111 19.9217 43.9976 20.0214 44.6892 21.128C45.0867 21.764 46.1982 21.7974 46.8531 22.043C48.2353 22.5613 49.4771 23.0863 50.7887 23.7421C54.2062 25.4509 57.7773 25.4158 61.2158 26.8789C63.0751 27.6701 65.1517 27.9995 66.9812 28.8685C68.5048 29.5922 69.3414 30.4945 71.0329 31.0469C72.8025 31.6247 74.8577 31.8273 76.261 33.1526C77.508 34.3303 79.2885 34.7584 80.8501 35.3891C84.0691 36.689 86.8899 38.6126 89.8249 40.5881C91.7016 41.8512 93.7178 42.7996 95.6484 43.9718C97.5923 45.152 99.2137 46.5678 101.312 47.6315C102.742 48.3559 104.231 48.9207 105.422 50.0277C106.45 50.983 107.231 51.1084 108.559 51.6832C111.913 53.1353 115.108 55.1481 118.289 56.9403C120.825 58.3693 123.072 60.2929 125.637 61.6456C127.424 62.5879 129.665 63.4659 131.127 64.9277C131.746 65.5465 131.703 66.5825 132.085 67.2513C132.358 67.7294 134.164 68.1256 134.641 68.384C135.84 69.033 136.459 69.8561 137.284 70.8819C138.097 71.8928 138.917 72.8846 139.695 73.9316C141.488 76.3449 142.512 79.0317 142.512 82.0351" stroke="#C90033" stroke-width="3" stroke-linecap="round"/>
<path d="M70.6263 29.7544C70.6263 27.3777 70.8877 25.0833 70.8877 22.6965C70.8877 20.0862 68.3435 17.8309 66.7343 15.929C65.8219 14.8508 65.8027 13.9767 65.3982 12.7631" stroke="#C90033" stroke-width="3" stroke-linecap="round"/>
<path d="M100.165 45.7C100.099 44.5062 99.5185 43.594 99.0031 42.5631C98.3979 41.3528 98.3531 39.41 98.0737 38.0902C97.398 34.8994 96.1064 31.2987 94.5302 28.4328C93.3776 26.3372 92.5684 24.1318 91.4079 22.0429C90.9101 21.147 90.1585 20.4591 89.7087 19.5596" stroke="#C90033" stroke-width="3" stroke-linecap="round"/>
<path d="M124.998 60.3386C124.998 56.1923 123.761 52.454 122.181 48.6625C121.252 46.4334 120.674 43.9427 119.973 41.6337C119.562 40.2783 119.216 38.2406 118.26 37.1317C116.39 34.9631 115.664 32.5974 114.803 30.0158" stroke="#C90033" stroke-width="3" stroke-linecap="round"/>
<path d="M69.5807 31.8456C67.5587 32.2949 59.4024 41.1118 58.5 42.5155C57.234 44.4849 62.7014 40.3944 60.5477 41.1399C58.6151 41.8089 65.0227 40.2911 62.5 40.2911C60.5227 43.9666 44.6161 44 42.5 44" stroke="#C90033" stroke-width="3" stroke-linecap="round"/>
<path d="M98.8579 45.9614C98.8579 48.9095 94.132 50.8414 91.8581 52.2351C90.5354 53.0457 88.9154 52.9219 87.6756 54.0068C86.8455 54.7331 85.9495 55.6968 84.9163 56.0545C83.021 56.7105 80.8766 57.0034 79.0783 57.8552C77.3526 58.6727 74.8595 58.5301 72.9789 59.0316C71.0199 59.554 69.1966 59.834 67.199 60.2224C66.2327 60.4103 64.6566 60.3102 63.8298 60.8614" stroke="#C90033" stroke-width="3" stroke-linecap="round"/>
<path d="M124.475 61.1228C123.988 61.6587 123.76 62.2984 123.372 62.8945C122.839 63.7115 121.88 64.187 121.135 64.7824C120.006 65.6857 119.21 66.7944 118.202 67.8031C116.502 69.503 114.432 70.3359 112.277 71.3175C111.316 71.755 110.17 72.0405 109.314 72.6826C108.427 73.3482 107.664 74.4045 106.642 74.861C100.667 77.5282 94.5727 78.3754 88.1403 78.3754" stroke="#C90033" stroke-width="3" stroke-linecap="round"/>
</svg>
